<svg width="16" height="16" viewBox="0 0 16 16" fill="none" xmlns="http://www.w3.org/2000/svg">
<path d="M4.83008 9.36227L6.82551 6.89833L9.10164 8.59697L11.0543 6.20264" stroke="black" stroke-linecap="round" stroke-linejoin="round"/>
<path d="M13.3303 3.87756C14.038 3.87756 14.6118 3.33248 14.6118 2.6601C14.6118 1.98771 14.038 1.44263 13.3303 1.44263C12.6226 1.44263 12.0488 1.98771 12.0488 2.6601C12.0488 3.33248 12.6226 3.87756 13.3303 3.87756Z" stroke="black" stroke-linecap="round" stroke-linejoin="round"/>
<path d="M9.94921 1.97607H5.10404C3.09642 1.97607 1.85156 3.32688 1.85156 5.23424V10.3534C1.85156 12.2607 3.072 13.6058 5.10404 13.6058H10.8401C12.8477 13.6058 14.0926 12.2607 14.0926 10.3534V5.89515" stroke="black" stroke-linecap="round" stroke-linejoin="round"/>
</svg>
