<svg width="16" height="16" viewBox="0 0 16 16" fill="none" xmlns="http://www.w3.org/2000/svg">
<path d="M3.82812 0.328124L3.75 0.403124V4.60312V8.80312L3.81563 8.8875C3.90625 9.00312 4.09375 9.00312 4.18438 8.8875C4.25 8.80312 4.25 8.80312 4.25 4.77812V0.749999H9.75H15.25V8V15.25H9.75C4.80938 15.25 4.25 15.2437 4.25 15.2031C4.25 15.175 4.21563 15.1187 4.17188 15.0781C4.07188 14.975 3.92813 14.975 3.82812 15.0781C3.75938 15.1437 3.75 15.1812 3.75 15.375C3.75 15.5687 3.75938 15.6062 3.82812 15.6719L3.90313 15.75H9.75H15.5969L15.6719 15.6719L15.75 15.5969V8V0.403124L15.6719 0.328124L15.5969 0.249999H9.75H3.90313L3.82812 0.328124Z" fill="black"/>
<path d="M8.7499 1.54053C8.59678 1.59053 8.33428 1.85928 8.2874 2.01866C8.26553 2.09366 8.2499 2.33116 8.2499 2.57491V2.99991H7.6999C7.35615 2.99991 7.0999 3.01553 7.01865 3.03741C6.84678 3.08741 6.5874 3.34678 6.5374 3.51866C6.48428 3.69991 6.48428 6.29991 6.5374 6.48116C6.5874 6.65303 6.84678 6.91241 7.01865 6.96241C7.11553 6.99053 7.7999 6.99991 9.75615 6.99991C12.7187 6.99991 12.553 7.01241 12.7905 6.74991C12.8655 6.66866 12.9437 6.54366 12.9624 6.47491C13.0155 6.30303 13.0155 3.69678 12.9624 3.52491C12.9437 3.45616 12.8655 3.33116 12.7905 3.24991C12.5905 3.02803 12.4812 2.99991 11.8062 2.99991H11.2499V2.57491C11.2499 2.06553 11.2187 1.94991 11.0405 1.74991C10.8249 1.50928 10.7655 1.49991 9.7374 1.50303C9.19365 1.50616 8.81865 1.51866 8.7499 1.54053ZM10.6718 2.07803C10.7468 2.14991 10.7499 2.16866 10.7499 2.57803V2.99991H9.7499H8.7499V2.57803C8.7499 2.16866 8.75303 2.14991 8.82803 2.07803L8.90303 1.99991H9.7499H10.5968L10.6718 2.07803ZM7.4999 4.99991V6.49991H7.32803C7.18428 6.49991 7.14053 6.48741 7.07803 6.42178L6.9999 6.34678V4.99991V3.65303L7.07803 3.57803C7.14053 3.51241 7.18428 3.49991 7.32803 3.49991H7.4999V4.99991ZM8.4999 4.99991V6.49991H8.2499H7.9999V4.99991V3.49991H8.2499H8.4999V4.99991ZM10.4999 4.99991V6.49991H9.7499H8.9999V4.99991V3.49991H9.7499H10.4999V4.99991ZM11.4999 4.99991V6.49991H11.2499H10.9999V4.99991V3.49991H11.2499H11.4999V4.99991ZM12.4218 3.57803L12.4999 3.65303V4.99991V6.34678L12.4218 6.42178C12.3593 6.48741 12.3155 6.49991 12.1718 6.49991H11.9999V4.99991V3.49991H12.1718C12.3155 3.49991 12.3593 3.51241 12.4218 3.57803Z" fill="black"/>
<path d="M2.60928 7.78756C2.17803 8.22506 2.05303 8.36881 1.96241 8.54694C1.76553 8.92819 1.77178 8.87506 1.75303 10.6563L1.73428 12.2969L1.63741 12.5001C1.58428 12.6126 1.24991 13.0876 0.893657 13.5594C0.199907 14.4844 0.178032 14.5251 0.328032 14.6719C0.418657 14.7657 0.559282 14.7751 0.649907 14.6938C0.781157 14.5813 2.02178 12.8844 2.09053 12.7219C2.23741 12.3751 2.24991 12.2376 2.24991 10.6876C2.24991 9.84381 2.26553 9.17819 2.28116 9.10006C2.34991 8.80631 2.44053 8.68131 2.95616 8.15631C3.23428 7.87194 3.47178 7.60944 3.48428 7.56881C3.53116 7.41256 3.39053 7.25006 3.20928 7.25006C3.16241 7.25006 2.97803 7.41569 2.60928 7.78756Z" fill="black"/>
<path d="M5.79375 7.3125C5.725 7.34688 5.625 7.42188 5.57188 7.47812C5.39688 7.6625 3.75 10.15 3.75 10.2281C3.75 10.2687 3.77813 10.3406 3.81563 10.3875C3.9 10.4969 4.08438 10.5031 4.17813 10.3969C4.2125 10.3594 4.6125 9.77187 5.06562 9.09375C5.51875 8.41563 5.9125 7.8375 5.94375 7.80625C5.97813 7.77187 6.04688 7.75 6.12188 7.75C6.34375 7.75 6.50625 7.95 6.50625 8.225C6.50313 8.3625 6.45625 8.4625 6.00312 9.28125L5.5 10.1844V10.4156C5.5 10.9781 5.38125 11.7344 5.21563 12.2313C4.97187 12.9656 4.51875 13.5344 4.025 13.725C3.85 13.7937 3.825 13.8219 3.17188 14.6031C2.69375 15.1781 2.5 15.4344 2.5 15.4906C2.5 15.5812 2.65625 15.75 2.74063 15.75C2.85313 15.75 2.94375 15.6594 3.53125 14.9531C4.11563 14.2531 4.1375 14.2312 4.37188 14.1094C4.67813 13.95 5.06875 13.5781 5.2875 13.2375C5.69688 12.6 5.92813 11.7562 5.9875 10.6875L6.00938 10.2969L6.4625 9.48438C6.70937 9.0375 6.93438 8.61562 6.95937 8.54688C7.11875 8.10938 6.9 7.53125 6.49688 7.33125C6.28437 7.225 5.9875 7.21875 5.79375 7.3125Z" fill="black"/>
<path d="M7.82813 8.07812C7.77813 8.125 7.75 8.19062 7.75 8.25C7.75 8.30938 7.77813 8.375 7.82813 8.42188L7.90313 8.5H10.875H13.8469L13.9219 8.42188C14.025 8.32187 14.025 8.17812 13.9219 8.07812L13.8469 8H10.875H7.90313L7.82813 8.07812Z" fill="black"/>
<path d="M7.07812 9.57812C7.02813 9.625 7 9.69062 7 9.75C7 9.80938 7.02813 9.875 7.07812 9.92188L7.15313 10H8H8.84688L8.92188 9.92188C8.97188 9.875 9 9.80938 9 9.75C9 9.69062 8.97188 9.625 8.92188 9.57812L8.84688 9.5H8H7.15313L7.07812 9.57812Z" fill="black"/>
<path d="M9.82812 9.57812C9.77813 9.625 9.75 9.69062 9.75 9.75C9.75 9.80938 9.77813 9.875 9.82812 9.92188L9.90313 10H11.875H13.8469L13.9219 9.92188C13.9719 9.875 14 9.80938 14 9.75C14 9.69062 13.9719 9.625 13.9219 9.57812L13.8469 9.5H11.875H9.90313L9.82812 9.57812Z" fill="black"/>
<path d="M6.57812 11.0781C6.52813 11.125 6.5 11.1906 6.5 11.25C6.5 11.3094 6.52813 11.375 6.57812 11.4219L6.65313 11.5H8.625H10.5969L10.6719 11.4219C10.7219 11.375 10.75 11.3094 10.75 11.25C10.75 11.1906 10.7219 11.125 10.6719 11.0781L10.5969 11H8.625H6.65313L6.57812 11.0781Z" fill="black"/>
<path d="M11.5781 11.0781C11.5281 11.125 11.5 11.1906 11.5 11.25C11.5 11.3094 11.5281 11.375 11.5781 11.4219L11.6531 11.5H12.75H13.8469L13.9219 11.4219C13.9719 11.375 14 11.3094 14 11.25C14 11.1906 13.9719 11.125 13.9219 11.0781L13.8469 11H12.75H11.6531L11.5781 11.0781Z" fill="black"/>
<path d="M7.76562 12.8094C7.59063 12.8906 7.38438 13.0688 7.09375 13.3938C6.95625 13.5469 6.7875 13.7 6.72187 13.7344C6.53125 13.8344 6.5 13.8719 6.5 14C6.5 14.2531 6.77187 14.3219 7.0375 14.1375C7.10625 14.0875 7.30313 13.9 7.475 13.7156C7.64688 13.5312 7.81875 13.3562 7.8625 13.3313L7.9375 13.2812L7.92813 13.6344C7.92188 14.0281 7.95 14.1281 8.1 14.2063C8.2 14.2594 8.2875 14.2625 8.45312 14.2156C8.55 14.1906 8.64688 14.1125 8.87812 13.8719L9.17813 13.5625L9.21563 13.7469C9.28125 14.0719 9.4625 14.25 9.73438 14.25C9.89062 14.25 10.0375 14.1781 10.2563 13.9906L10.4219 13.85L10.5344 13.9531C10.7313 14.1313 11.1781 14.25 11.6594 14.25C11.8156 14.25 11.8594 14.2375 11.9219 14.1719C11.9719 14.125 12 14.0594 12 14C12 13.9406 11.9719 13.875 11.9219 13.8281C11.8594 13.7625 11.8156 13.75 11.6656 13.75C11.3969 13.75 11.0625 13.6937 10.9563 13.6312C10.9062 13.6031 10.8344 13.5219 10.7969 13.4563C10.6281 13.1562 10.4 13.1812 10.0063 13.5406C9.88438 13.6562 9.76875 13.75 9.75 13.75C9.71875 13.75 9.70312 13.6969 9.67188 13.475C9.64375 13.2656 9.57812 13.1313 9.4625 13.0625C9.225 12.9187 8.96563 13.0187 8.65937 13.3781L8.45312 13.625L8.43438 13.3531C8.41562 13.0375 8.35625 12.9 8.20938 12.8125C8.08438 12.7344 7.92813 12.7344 7.76562 12.8094Z" fill="black"/>
</svg>
