<svg width="16" height="16" viewBox="0 0 16 16" fill="none" xmlns="http://www.w3.org/2000/svg">
<path d="M13.657 5.65682V2.34302H10.3431L8 0L5.65698 2.34302H2.34302V5.65682L0 8L2.34302 10.3431V13.6568H5.65698L8 16L10.343 13.6568H13.6569V10.3431L16 8L13.657 5.65682ZM12.9879 10.066V12.9878H10.066L8 15.0539L5.93401 12.9878H3.01208V10.066L0.94609 8L3.01208 5.93388V3.01208H5.93401L8 0.94609L10.066 3.01208H12.9879V5.93384L15.0539 8L12.9879 10.066Z" fill="black"/>
<path d="M5.35628 8.19972L4.00555 6.42773H3.43066V9.18026H4.045V7.45552L5.35628 9.18026H5.97058V6.42773H5.35628V8.19972Z" fill="black"/>
<path d="M7.26176 8.06584H8.49419V7.54209H7.26176V6.9751H8.63205V6.42773H6.64746V9.18026H8.67528V8.63681H7.26176V8.06584Z" fill="black"/>
<path d="M11.6965 8.01072L11.2121 6.42773H10.5701L10.0819 8.01072L9.53855 6.42773H8.87305L9.83383 9.18026H10.2906L10.8891 7.26649L11.4917 9.18026H11.9484L12.9094 6.42773H12.2439L11.6965 8.01072Z" fill="black"/>
</svg>
