<svg width="16" height="16" viewBox="0 0 16 16" fill="none" xmlns="http://www.w3.org/2000/svg">
<path d="M9.99967 8.80029H5.33301C5.05967 8.80029 4.83301 8.57363 4.83301 8.30029C4.83301 8.02696 5.05967 7.80029 5.33301 7.80029H9.99967C10.273 7.80029 10.4997 8.02696 10.4997 8.30029C10.4997 8.57363 10.273 8.80029 9.99967 8.80029Z" fill="black"/>
<path d="M8.25301 11.4668H5.33301C5.05967 11.4668 4.83301 11.2401 4.83301 10.9668C4.83301 10.6935 5.05967 10.4668 5.33301 10.4668H8.25301C8.52634 10.4668 8.75301 10.6935 8.75301 10.9668C8.75301 11.2401 8.52634 11.4668 8.25301 11.4668Z" fill="black"/>
<path d="M9.33301 4.66667H6.66634C6.02634 4.66667 4.83301 4.66667 4.83301 2.83333C4.83301 1 6.02634 1 6.66634 1H9.33301C9.97301 1 11.1663 1 11.1663 2.83333C11.1663 3.47333 11.1663 4.66667 9.33301 4.66667ZM6.66634 2C6.00634 2 5.83301 2 5.83301 2.83333C5.83301 3.66667 6.00634 3.66667 6.66634 3.66667H9.33301C10.1663 3.66667 10.1663 3.49333 10.1663 2.83333C10.1663 2 9.99301 2 9.33301 2H6.66634Z" fill="black"/>
<path d="M10 15.3334H6C2.25333 15.3334 1.5 13.6134 1.5 10.8334V6.83345C1.5 3.79345 2.6 2.49345 5.30667 2.35345C5.57333 2.34012 5.82 2.54678 5.83333 2.82678C5.84667 3.10678 5.63333 3.33345 5.36 3.34678C3.46667 3.45345 2.5 4.02012 2.5 6.83345V10.8334C2.5 13.3001 2.98667 14.3334 6 14.3334H10C13.0133 14.3334 13.5 13.3001 13.5 10.8334V6.83345C13.5 4.02012 12.5333 3.45345 10.64 3.34678C10.3667 3.33345 10.1533 3.09345 10.1667 2.82012C10.18 2.54678 10.42 2.33345 10.6933 2.34678C13.4 2.49345 14.5 3.79345 14.5 6.82678V10.8268C14.5 13.6134 13.7467 15.3334 10 15.3334Z" fill="black"/>
</svg>
