<svg width="16" height="16" viewBox="0 0 16 16" fill="none" xmlns="http://www.w3.org/2000/svg">
<path d="M10.6667 15.1666H5.33333C2.9 15.1666 1.5 13.7666 1.5 11.3333V4.66658C1.5 2.23325 2.9 0.833252 5.33333 0.833252H10.6667C13.1 0.833252 14.5 2.23325 14.5 4.66658V11.3333C14.5 13.7666 13.1 15.1666 10.6667 15.1666ZM5.33333 1.83325C3.42667 1.83325 2.5 2.75992 2.5 4.66658V11.3333C2.5 13.2399 3.42667 14.1666 5.33333 14.1666H10.6667C12.5733 14.1666 13.5 13.2399 13.5 11.3333V4.66658C13.5 2.75992 12.5733 1.83325 10.6667 1.83325H5.33333Z" fill="#292D32"/>
<path d="M12.3332 6.16667H10.9998C9.9865 6.16667 9.1665 5.34667 9.1665 4.33333V3C9.1665 2.72667 9.39317 2.5 9.6665 2.5C9.93984 2.5 10.1665 2.72667 10.1665 3V4.33333C10.1665 4.79333 10.5398 5.16667 10.9998 5.16667H12.3332C12.6065 5.16667 12.8332 5.39333 12.8332 5.66667C12.8332 5.94 12.6065 6.16667 12.3332 6.16667Z" fill="#292D32"/>
<path d="M8.00016 9.16675H5.3335C5.06016 9.16675 4.8335 8.94008 4.8335 8.66675C4.8335 8.39341 5.06016 8.16675 5.3335 8.16675H8.00016C8.2735 8.16675 8.50016 8.39341 8.50016 8.66675C8.50016 8.94008 8.2735 9.16675 8.00016 9.16675Z" fill="#292D32"/>
<path d="M10.6668 11.8333H5.3335C5.06016 11.8333 4.8335 11.6066 4.8335 11.3333C4.8335 11.0599 5.06016 10.8333 5.3335 10.8333H10.6668C10.9402 10.8333 11.1668 11.0599 11.1668 11.3333C11.1668 11.6066 10.9402 11.8333 10.6668 11.8333Z" fill="#292D32"/>
</svg>
