<svg width="16" height="16" viewBox="0 0 16 16" fill="none" xmlns="http://www.w3.org/2000/svg">
<path d="M14.459 7.97592C14.4335 7.78692 14.323 7.62742 14.163 7.52492C14.057 7.45692 13.9255 7.45642 13.8145 7.50392C13.813 7.09592 13.8145 6.68792 13.804 6.28042C13.7935 5.82292 13.8185 5.36592 13.8355 4.90942C13.8415 4.75892 13.745 4.62892 13.6155 4.56492C13.604 4.39292 13.592 4.22092 13.577 4.04942C13.5675 3.94692 13.559 3.84442 13.5445 3.74292C13.5415 3.72292 13.539 3.70292 13.536 3.68292C13.5285 3.62992 13.5045 3.53842 13.4745 3.49792C13.431 3.44092 13.394 3.37742 13.3265 3.34492C13.277 3.32142 13.2295 3.29842 13.1755 3.29092C13.123 3.28292 13.069 3.28292 13.016 3.27692C13.0045 3.10842 12.9955 2.93992 12.988 2.77142C13.007 2.72792 13.0175 2.68092 13.0175 2.63192C13.0175 2.43442 12.853 2.27292 12.6575 2.27092C12.255 2.26792 11.8525 2.27392 11.45 2.25692C11.088 2.24192 10.7265 2.22092 10.363 2.21342C9.59946 2.19942 8.83446 2.20492 8.06996 2.19942C7.31996 2.19442 6.57096 2.17942 5.81946 2.17742C5.45296 2.17692 5.08646 2.16992 4.72046 2.16992C4.36746 2.16992 4.01396 2.17642 3.66146 2.20092C3.27246 2.22842 2.87846 2.31742 2.52046 2.47342C2.17096 2.62442 1.85696 2.92542 1.74846 3.29642C1.71896 3.39792 1.70396 3.50142 1.69046 3.60692C1.67896 3.69242 1.66896 3.77992 1.67896 3.86592C1.69146 3.97342 1.70896 4.07742 1.73746 4.18042C1.61996 4.23992 1.53746 4.35992 1.53596 4.49842C1.53096 4.89742 1.53296 5.29592 1.52546 5.69392C1.51896 6.05592 1.51046 6.41742 1.50646 6.77842C1.49996 7.50942 1.49596 8.23942 1.50646 8.97092C1.51396 9.47892 1.52546 9.98692 1.52746 10.4949C1.53046 11.0049 1.53696 11.5154 1.52546 12.0264C1.52396 12.0899 1.54646 12.1469 1.57746 12.1989C1.65296 12.3939 1.73196 12.5899 1.83446 12.7719C1.87646 12.8459 1.92946 12.9144 1.98046 12.9829C2.02796 13.0454 2.07646 13.1074 2.12496 13.1689C2.19896 13.2629 2.30996 13.3369 2.40896 13.4004C2.62996 13.5449 2.88746 13.6369 3.14696 13.6824C3.37196 13.7214 3.59896 13.7594 3.82696 13.7734C4.24096 13.7979 4.65696 13.8009 5.07246 13.8084C5.46746 13.8149 5.86246 13.8224 6.25646 13.8219C6.65896 13.8219 7.06046 13.8174 7.46246 13.8199C7.86596 13.8239 8.26846 13.8359 8.67196 13.8274C9.08796 13.8199 9.50296 13.8029 9.91846 13.7969C10.318 13.7904 10.72 13.7924 11.1195 13.7924C11.501 13.7924 11.883 13.7924 12.2635 13.7874C12.442 13.7854 12.6205 13.7874 12.8 13.7894C12.988 13.7914 13.176 13.7934 13.365 13.7904C13.4935 13.7889 13.6055 13.7249 13.6815 13.6309C13.778 13.5619 13.8465 13.4554 13.844 13.3309C13.8355 12.9009 13.84 12.4709 13.8355 12.0404C13.829 11.5464 13.8365 11.0534 13.845 10.5599C13.9635 10.5419 14.0695 10.5074 14.168 10.4249C14.3875 10.2409 14.4395 9.92542 14.4625 9.65592C14.477 9.48892 14.477 9.32092 14.4835 9.15292C14.494 8.89642 14.5065 8.63742 14.4975 8.37992C14.4925 8.24492 14.477 8.10992 14.459 7.97592ZM3.85146 4.41742C3.85296 4.38092 3.85496 4.34392 3.84696 4.30642C3.84496 4.29692 3.84346 4.28692 3.84146 4.27742C3.83146 4.12442 3.83646 3.97042 3.83796 3.81642C4.56946 3.83742 5.30146 3.83792 6.03396 3.84142C6.41096 3.84342 6.78796 3.85292 7.16496 3.86242C7.51446 3.87192 7.86296 3.89742 8.21246 3.90892C8.57596 3.92142 8.94046 3.92692 9.30546 3.93442C9.66996 3.94192 10.0355 3.94942 10.4 3.95242C10.771 3.95542 11.1425 3.95892 11.513 3.95992C11.8395 3.96092 12.1665 3.97492 12.493 3.97692C12.614 3.97742 12.7345 3.98192 12.8545 3.99092C12.8745 4.16742 12.8875 4.34442 12.893 4.52242C12.6985 4.52642 12.5035 4.52442 12.31 4.52242C11.9465 4.51742 11.5825 4.50642 11.219 4.50442C10.489 4.50042 9.76046 4.47592 9.03046 4.47042C8.25396 4.46492 7.47796 4.47142 6.70146 4.44392C6.20196 4.42692 5.70146 4.42792 5.20246 4.42892C4.93546 4.42892 4.66896 4.42992 4.40296 4.42692C4.21896 4.42442 4.03496 4.42192 3.85146 4.41742ZM13.709 9.78692C13.7095 9.78642 13.7105 9.78542 13.7115 9.78442C13.711 9.78542 13.71 9.78642 13.709 9.78692ZM13.612 8.21242C13.638 8.21442 13.6635 8.21292 13.688 8.20892C13.703 8.42842 13.7005 8.64842 13.6965 8.86892C13.6945 9.00842 13.692 9.14792 13.689 9.28842C13.6875 9.42492 13.6895 9.56142 13.677 9.69692C13.671 9.72842 13.664 9.75942 13.6555 9.79042C13.517 9.79742 13.377 9.79292 13.239 9.78942C13.071 9.78542 12.903 9.78392 12.735 9.78392C12.3625 9.78392 11.9885 9.78492 11.619 9.74292C11.5065 9.72292 11.3975 9.69442 11.2905 9.65492C11.183 9.60392 11.0845 9.54492 10.989 9.47592C10.953 9.44442 10.9185 9.41192 10.8855 9.37742C10.8655 9.34642 10.848 9.31492 10.831 9.28242C10.8135 9.23542 10.7975 9.18792 10.7845 9.13842C10.7765 9.02692 10.78 8.91792 10.792 8.80692C10.812 8.68792 10.8365 8.56992 10.8775 8.45592C10.891 8.42942 10.9055 8.40442 10.921 8.37992C10.94 8.36092 10.959 8.34242 10.979 8.32542C11.017 8.30192 11.056 8.28042 11.0965 8.26042C11.195 8.22492 11.295 8.19792 11.399 8.17942C11.5615 8.16292 11.7235 8.15942 11.887 8.15542C12.0615 8.15042 12.2365 8.14392 12.411 8.14392C12.812 8.14192 13.2135 8.18192 13.612 8.21242ZM2.44746 3.64992C2.45896 3.58792 2.47296 3.52742 2.49296 3.46792C2.50696 3.43992 2.52246 3.41342 2.53896 3.38742C2.58246 3.33842 2.62896 3.29242 2.67846 3.24942C2.74196 3.20592 2.80796 3.16992 2.87796 3.13642C3.11546 3.04592 3.36496 2.98942 3.61496 2.95142C3.95646 2.91492 4.29646 2.89842 4.63946 2.89592C5.00196 2.89392 5.36496 2.89042 5.72746 2.88942C6.06546 2.88942 6.40346 2.89142 6.74246 2.89342C7.14796 2.89542 7.55446 2.89792 7.96046 2.89542C8.72196 2.89092 9.48346 2.88892 10.245 2.90392C10.6095 2.91142 10.973 2.91892 11.338 2.94292C11.6385 2.96392 11.9395 2.97092 12.2405 2.97892C12.2475 3.06742 12.2535 3.15642 12.2635 3.24542C12.23 3.24542 12.1965 3.24442 12.163 3.24492C11.451 3.24942 10.739 3.25992 10.0265 3.24942C9.64946 3.24492 9.27246 3.23692 8.89646 3.22492C8.54046 3.21442 8.18546 3.21142 7.82996 3.19742C7.46646 3.18292 7.10346 3.16792 6.73996 3.16342C6.37646 3.15792 6.01246 3.15842 5.64896 3.15392C4.97096 3.14342 4.29296 3.11892 3.61596 3.09042C3.61146 3.09042 3.60696 3.08992 3.60246 3.08992C3.42746 3.08992 3.28696 3.23792 3.26346 3.40542C3.15796 3.47292 3.08296 3.58492 3.08346 3.71692C3.08446 3.93692 3.08846 4.15842 3.11646 4.37742C3.10146 4.37442 3.08546 4.37492 3.06946 4.37292C2.95346 4.35492 2.83846 4.33542 2.72696 4.29842C2.69096 4.27992 2.65696 4.25942 2.62296 4.23642C2.60496 4.22042 2.58846 4.20392 2.57246 4.18592C2.54546 4.14242 2.52296 4.09792 2.50196 4.05192C2.47696 3.98592 2.45746 3.91992 2.44296 3.85092C2.43846 3.78342 2.44096 3.71742 2.44746 3.64992ZM12.23 12.9849C11.8415 12.9944 11.4525 12.9934 11.064 13.0019C10.233 13.0179 9.40246 13.0464 8.57046 13.0524C8.18496 13.0544 7.79846 13.0629 7.41296 13.0599C7.00296 13.0579 6.59346 13.0524 6.18446 13.0514C5.79796 13.0504 5.41146 13.0554 5.02496 13.0569C4.60896 13.0579 4.19046 13.0599 3.77646 13.0189C3.74346 13.0154 3.71046 13.0124 3.67746 13.0089C3.45196 12.9769 3.22496 12.9369 3.01196 12.8579C2.92696 12.8159 2.84496 12.7694 2.76696 12.7159C2.71296 12.6684 2.66546 12.6169 2.61996 12.5619C2.57996 12.5089 2.54096 12.4544 2.50446 12.3979C2.46496 12.3349 2.43396 12.2654 2.40396 12.1969C2.36946 12.1119 2.33646 12.0259 2.30396 11.9394C2.28446 11.8879 2.26046 11.8424 2.22996 11.8019C2.22496 11.1579 2.22496 10.5144 2.21646 9.87142C2.21096 9.51442 2.20396 9.15642 2.19946 8.79942C2.19396 8.43292 2.19846 8.06542 2.19746 7.69892C2.19746 7.17442 2.19646 6.64992 2.20996 6.12492C2.21996 5.71692 2.23246 5.30942 2.24346 4.90142C2.26746 4.91642 2.29096 4.93292 2.31496 4.94642C2.51446 5.05642 2.73746 5.08392 2.95946 5.11092C3.14546 5.13392 3.33246 5.14392 3.52046 5.15092C3.89346 5.16442 4.26796 5.15942 4.64196 5.15942C5.03596 5.15942 5.42896 5.15492 5.82296 5.15292C6.21046 5.14992 6.59596 5.16792 6.98296 5.18042C7.35596 5.19192 7.72946 5.19192 8.10346 5.19192C8.49096 5.19092 8.87896 5.18792 9.26646 5.18892C9.64646 5.18992 10.026 5.21242 10.405 5.23542C11.117 5.27742 11.832 5.27992 12.545 5.28842C12.7135 5.29042 12.8845 5.28842 13.055 5.28142C13.0445 5.99492 13.054 6.70892 13.057 7.42242C12.8235 7.41142 12.59 7.39492 12.356 7.39242C12.1765 7.39042 11.997 7.38492 11.8185 7.38192C11.8005 7.38142 11.783 7.38142 11.765 7.38142C11.566 7.38142 11.3695 7.40042 11.172 7.42642C10.9575 7.45592 10.739 7.54342 10.555 7.65642C10.4175 7.74092 10.3205 7.85392 10.2235 7.98042C10.1625 8.05992 10.1265 8.17242 10.0925 8.26342C10.0555 8.36142 10.0355 8.46642 10.0155 8.56942C9.96396 8.83342 9.93946 9.10092 9.99446 9.36692C10.008 9.43342 10.0345 9.49792 10.059 9.56142C10.12 9.71992 10.2025 9.85092 10.3165 9.97742C10.4065 10.0779 10.5275 10.1559 10.6375 10.2329C10.7085 10.2824 10.7865 10.3229 10.8655 10.3594C10.9775 10.4099 11.0935 10.4629 11.214 10.4924C11.4275 10.5454 11.6505 10.5629 11.87 10.5749C12.116 10.5884 12.3635 10.5864 12.6115 10.5844C12.716 10.5834 12.8215 10.5824 12.9265 10.5824C12.9705 10.5824 13.014 10.5829 13.058 10.5834C13.0525 11.3794 13.078 12.1749 13.0845 12.9704C12.8 12.9734 12.515 12.9784 12.23 12.9849ZM12.066 8.93242C12.066 9.14792 11.8865 9.32792 11.6705 9.32792C11.455 9.32792 11.275 9.14842 11.275 8.93242C11.275 8.71692 11.4545 8.53692 11.6705 8.53692C11.886 8.53692 12.066 8.71692 12.066 8.93242Z" fill="black"/>
</svg>
