<svg width="16" height="16" viewBox="0 0 16 16" fill="none" xmlns="http://www.w3.org/2000/svg">
<path d="M6.82804 0.327929C6.78429 0.368554 6.74992 0.424805 6.74992 0.449804C6.74992 0.484179 6.69054 0.499804 6.50929 0.515429C5.71242 0.577929 5.09367 0.687304 4.49992 0.86543C2.82492 1.36855 1.44054 2.32793 0.412419 3.6998C0.224919 3.94668 0.206169 4.05293 0.328044 4.17168C0.431169 4.27793 0.499919 4.27168 0.840544 4.12168C1.23742 3.95293 1.77179 3.81855 2.24054 3.7748C2.94054 3.70918 3.74992 3.8373 4.40929 4.12168C4.57179 4.19355 4.72492 4.2498 4.74992 4.2498C4.77804 4.2498 4.91242 4.20293 5.05304 4.14355C5.51554 3.94668 6.04679 3.80918 6.52492 3.76543L6.74992 3.74043V7.29355V10.8467L6.82804 10.9217C6.92804 11.0248 7.07179 11.0248 7.17179 10.9217L7.24992 10.8467V7.29355V3.74043L7.47804 3.7623C7.94679 3.80918 8.59367 3.97793 8.99679 4.15918C9.10617 4.20918 9.21867 4.2498 9.24679 4.2498C9.27492 4.2498 9.43117 4.19043 9.59367 4.12168C10.1062 3.8998 10.8218 3.7498 11.3749 3.7498C11.928 3.7498 12.6437 3.8998 13.1562 4.12168C13.4999 4.27168 13.5687 4.27793 13.6718 4.17168C13.7968 4.0498 13.7749 3.9498 13.5624 3.66543C12.4374 2.15293 10.7437 1.09043 8.81242 0.69043C8.50929 0.624804 7.93117 0.549805 7.49367 0.515429C7.30929 0.499804 7.24992 0.484179 7.24992 0.449804C7.24992 0.368554 7.10304 0.249804 6.99992 0.249804C6.94054 0.249804 6.87492 0.277929 6.82804 0.327929ZM7.43429 1.12793C7.80304 1.32168 8.19367 1.83418 8.49367 2.5123C8.62492 2.81543 8.88117 3.53418 8.86242 3.55293C8.85929 3.55918 8.73429 3.52793 8.59054 3.48418C7.89679 3.2748 7.06867 3.1998 6.37492 3.27793C6.10617 3.30918 5.52492 3.44355 5.19679 3.54668L5.12492 3.56855L5.17492 3.40293C5.32492 2.89355 5.63742 2.17793 5.86554 1.82793C5.93429 1.7248 6.07179 1.55293 6.17179 1.44355C6.58429 0.999804 6.99992 0.893555 7.43429 1.12793ZM5.70617 1.19355C5.29679 1.70293 4.90929 2.5123 4.65617 3.39355L4.58429 3.64355L4.23742 3.52793C3.80617 3.38105 3.52804 3.32168 3.03742 3.2748C2.52492 3.2248 1.84054 3.28418 1.33117 3.42168C1.22179 3.45293 1.88429 2.83418 2.27804 2.5373C3.20929 1.83418 4.19679 1.39668 5.39054 1.15605C5.80304 1.07168 5.80617 1.07168 5.70617 1.19355ZM8.84367 1.20605C9.99679 1.45605 11.1812 2.04668 12.0812 2.82168C12.4999 3.18418 12.7624 3.45293 12.6687 3.4248C12.4718 3.36543 12.128 3.30918 11.7749 3.2748C11.0999 3.2123 10.2749 3.3248 9.62804 3.56855L9.42492 3.64668L9.22804 3.05293C8.95617 2.24355 8.65617 1.64668 8.29054 1.19043L8.20304 1.08418L8.34367 1.10918C8.42179 1.11855 8.64679 1.16543 8.84367 1.20605Z" fill="black"/>
<path d="M11.9844 4.53438C11.8813 4.55 11.6719 4.6 11.5156 4.64375C10.7656 4.86562 10.65 4.88125 10.2188 4.79375C9.93125 4.73438 9.8375 4.75625 9.775 4.89062C9.74688 4.95312 9.7625 5.07812 9.85938 5.55937L9.97813 6.15312L9.6625 6.50937C8.85 7.42188 8.3375 8.2625 8.10938 9.04688C8 9.41875 7.97188 9.91875 8.04375 10.25C8.11563 10.5969 8.33125 11.0062 8.58125 11.275L8.7875 11.5H7.60938H6.43125L6.36875 11.4281C6.33438 11.3906 5.52188 9.99687 4.55938 8.32812C3.59688 6.6625 2.77813 5.2625 2.74063 5.225C2.60938 5.08437 2.4375 5.01875 2.20313 5.01562C1.99375 5.01562 1.97188 5.02187 1.66563 5.19687C1.49063 5.29688 1.29688 5.43437 1.2375 5.5C1.11563 5.6375 1.02188 5.90312 1.04688 6.04688C1.06563 6.1375 1.05938 6.14375 0.6875 6.35312C0.3125 6.56563 0.25 6.625 0.25 6.75C0.25 6.7875 0.80625 7.77812 1.48438 8.95625C2.1625 10.1312 2.71875 11.1062 2.71875 11.125C2.71875 11.1437 2.1625 12.1187 1.48438 13.2938C0.715625 14.625 0.25 15.4625 0.25 15.5156C0.25 15.5594 0.284375 15.6313 0.328125 15.6719C0.403125 15.75 0.40625 15.75 1.04375 15.75C1.44375 15.75 1.7125 15.7375 1.75938 15.7156C1.80938 15.6937 1.94688 15.4875 2.175 15.0906L2.51563 14.5L3.60625 14.5094L4.69375 14.5156L5.01875 15.0781C5.19688 15.3875 5.37188 15.6656 5.40938 15.6937C5.46875 15.7437 5.55313 15.75 6.12813 15.75C6.75625 15.75 6.78125 15.7469 6.85938 15.6781C6.99688 15.5625 6.975 15.4688 6.69063 14.9781C6.55313 14.7344 6.4375 14.525 6.4375 14.5156C6.4375 14.5063 7.79063 14.5031 9.44063 14.5063L12.4438 14.5156L12.7688 15.0781C12.9469 15.3875 13.1219 15.6656 13.1594 15.6937C13.2188 15.7437 13.3031 15.75 13.875 15.75C14.4844 15.75 14.5281 15.7469 14.6063 15.6844C14.7469 15.5719 14.7219 15.4594 14.4375 14.9719C14.3 14.7344 14.1875 14.5312 14.1875 14.5187C14.1875 14.5094 14.4469 14.5 14.7656 14.5C15.5438 14.5 15.5 14.5406 15.5 13.8188C15.5 13.3625 15.5063 13.2844 15.5531 13.2469C15.5813 13.2219 15.6375 13.1312 15.675 13.0469C15.7406 12.9125 15.75 12.8438 15.75 12.5187C15.75 12.0687 15.7156 11.9437 15.5406 11.75C15.3344 11.5187 15.2469 11.5 14.4125 11.5H13.7125L13.9156 11.2812C14.1313 11.05 14.3344 10.6969 14.4188 10.4062C14.4906 10.1719 14.5156 9.69062 14.4719 9.41563C14.3375 8.54375 13.7313 7.49062 12.7375 6.39375L12.5219 6.15312L12.6375 5.45937C12.7 5.07812 12.75 4.74062 12.75 4.70937C12.75 4.67812 12.7156 4.61875 12.6719 4.57812C12.6063 4.50937 12.5719 4.5 12.3844 4.50313C12.2688 4.50625 12.0875 4.51875 11.9844 4.53438ZM12.1875 5.06563C12.1875 5.10625 12.0688 5.82187 12.0469 5.92812L12.0313 6H11.2375H10.4469L10.3906 5.6875C10.3594 5.51562 10.3313 5.36875 10.3313 5.35625C10.3281 5.34375 10.4406 5.3375 10.5813 5.34062C10.85 5.34688 11.0063 5.31563 11.5938 5.14062C11.9625 5.03125 12.1875 5.00313 12.1875 5.06563ZM2.35625 5.56875C2.4 5.60938 3.21563 6.99687 4.17188 8.65625C5.12813 10.3156 5.94688 11.7125 5.99375 11.7594C6.04063 11.8094 6.13438 11.8812 6.20313 11.9156L6.32813 11.9844L10.7281 12L15.1313 12.0156L15.1906 12.0906C15.2406 12.1531 15.25 12.2156 15.25 12.5062C15.25 12.825 15.2469 12.85 15.1719 12.9219L15.0969 13H10.3219H5.54688L3.57813 9.59062C2.49688 7.71562 1.59063 6.1375 1.56875 6.08437C1.5 5.925 1.5625 5.83437 1.87188 5.65625C2.01875 5.57187 2.17188 5.5 2.20938 5.5C2.24688 5.5 2.3125 5.53125 2.35625 5.56875ZM12.3906 6.7625C13.1531 7.6 13.7219 8.49687 13.9063 9.15625C14.1063 9.875 13.9625 10.5062 13.4844 10.9844C13.2438 11.2281 12.9969 11.375 12.7 11.45C12.4156 11.525 10.0844 11.525 9.8 11.45C9.50313 11.3719 9.25625 11.2281 9.0125 10.9812C8.54688 10.5156 8.4 9.92812 8.57813 9.23438C8.75625 8.53437 9.30625 7.64687 10.1094 6.7625L10.35 6.5H11.25H12.15L12.3906 6.7625ZM3.76563 10.9062C5.11875 13.25 6.23438 15.1875 6.24063 15.2094C6.25313 15.2406 6.19063 15.25 5.97813 15.25H5.69688L3.28438 11.0719C1.95625 8.77187 0.86875 6.87813 0.865625 6.8625C0.85625 6.825 1.25938 6.59062 1.28438 6.61875C1.29688 6.63125 2.4125 8.55937 3.76563 10.9062ZM3.18125 11.8906L3.3125 12.125L2.41563 13.6875L1.51563 15.2469L1.225 15.25H0.93125L0.990625 15.1469C1.025 15.0938 1.49063 14.2844 2.02813 13.35C2.56563 12.4188 3.01563 11.6562 3.02813 11.6562C3.0375 11.6562 3.10625 11.7625 3.18125 11.8906ZM3.99688 13.3062C4.20938 13.6719 4.375 13.9781 4.36875 13.9875C4.35938 13.9937 4.00625 13.9969 3.58438 13.9937L2.81875 13.9844L3.20938 13.3031C3.425 12.9312 3.60625 12.6281 3.60938 12.6312C3.6125 12.6375 3.7875 12.9406 3.99688 13.3062ZM15 13.75V14H10.5625H6.12813L5.99688 13.7719C5.925 13.65 5.85938 13.5375 5.85313 13.5219C5.84688 13.5094 7.9 13.5 10.4188 13.5H15V13.75ZM13.7938 14.8562C13.9063 15.05 14 15.2188 14 15.2312C14 15.2406 13.875 15.25 13.7219 15.25H13.4469L13.2375 14.8906C13.125 14.6938 13.0313 14.525 13.0313 14.5156C13.0313 14.5063 13.1563 14.5 13.3094 14.5H13.5875L13.7938 14.8562Z" fill="black"/>
<path d="M11.0785 7.07799C11.0129 7.14049 11.0004 7.18424 11.0004 7.34361C11.0004 7.51236 10.9941 7.53111 10.9379 7.53111C10.9004 7.53111 10.8129 7.55924 10.741 7.59674C10.2316 7.85299 10.0941 8.52174 10.4691 8.94674C10.6535 9.15611 10.8191 9.22486 11.2097 9.24986C11.5222 9.26861 11.5379 9.27486 11.6347 9.36861C11.7191 9.45611 11.7347 9.49361 11.7347 9.62486C11.7347 9.75924 11.7191 9.79361 11.6316 9.88111C11.5316 9.98111 11.5254 9.98424 11.2472 9.98424H10.966L10.8285 9.83424C10.7191 9.72174 10.6691 9.68736 10.5941 9.68736C10.4597 9.68736 10.391 9.73111 10.3472 9.84049C10.3129 9.91861 10.316 9.94986 10.3597 10.0436C10.4347 10.1999 10.6566 10.3874 10.8347 10.4436L10.9847 10.4905L11.0004 10.6874C11.0129 10.8405 11.0316 10.8936 11.091 10.9405C11.191 11.0217 11.3316 11.0155 11.4222 10.9217C11.4879 10.8592 11.5004 10.8155 11.5004 10.6561C11.5004 10.4874 11.5066 10.4686 11.5629 10.4686C11.6004 10.4686 11.6816 10.4405 11.7472 10.4061C12.2722 10.1405 12.4097 9.48424 12.0316 9.05299C11.8472 8.84361 11.6816 8.77486 11.291 8.74986C10.9785 8.73111 10.9629 8.72486 10.866 8.63111C10.7816 8.54361 10.766 8.50611 10.766 8.37486C10.766 8.24049 10.7816 8.20611 10.8691 8.11861C10.9691 8.01861 10.9754 8.01549 11.2535 8.01549H11.5379L11.6441 8.14049C11.8379 8.36236 11.8535 8.37486 11.9535 8.37486C12.1722 8.37486 12.2535 8.13424 12.1129 7.90924C11.9941 7.72174 11.8254 7.60611 11.5566 7.51861C11.5129 7.50611 11.5004 7.46549 11.5004 7.32799C11.5004 7.18424 11.4879 7.14049 11.4222 7.07799C11.3754 7.02799 11.3097 6.99986 11.2504 6.99986C11.191 6.99986 11.1254 7.02799 11.0785 7.07799Z" fill="black"/>
</svg>
