<svg width="12" height="16" viewBox="0 0 12 16" fill="none" xmlns="http://www.w3.org/2000/svg">
<path d="M3.15455 4.96046H6.15253C6.46717 4.96046 6.72212 4.70544 6.72212 4.39087C6.72212 4.07631 6.46717 3.82129 6.15253 3.82129H3.15455C2.83998 3.82129 2.58496 4.07631 2.58496 4.39087C2.58496 4.70536 2.83998 4.96046 3.15455 4.96046Z" fill="black"/>
<path d="M8.84591 6.22656H3.15455C2.83998 6.22656 2.58496 6.48158 2.58496 6.79615C2.58496 7.11071 2.83998 7.36573 3.15455 7.36573H8.84591C9.16054 7.36573 9.41549 7.11071 9.41549 6.79615C9.41549 6.48158 9.16054 6.22656 8.84591 6.22656Z" fill="black"/>
<path d="M3.15455 9.77296H7.20748C7.52212 9.77296 7.77706 9.51794 7.77706 9.20337C7.77706 8.88881 7.52212 8.63379 7.20748 8.63379H3.15455C2.83998 8.63379 2.58496 8.88881 2.58496 9.20337C2.58496 9.51794 2.83998 9.77296 3.15455 9.77296Z" fill="black"/>
<path d="M8.84591 11.04H3.15455C2.83998 11.04 2.58496 11.2951 2.58496 11.6096C2.58496 11.9242 2.83998 12.1792 3.15455 12.1792H8.84591C9.16054 12.1792 9.41549 11.9242 9.41549 11.6096C9.41549 11.2951 9.16054 11.04 8.84591 11.04Z" fill="black"/>
<path d="M11.2466 1.37794L10.0356 0.16685C9.92885 0.0599962 9.78395 0 9.6329 0C9.48184 0 9.33694 0.0599962 9.23009 0.16685L8.42189 0.975128L7.61361 0.16685C7.50676 0.0599962 7.36185 0 7.2108 0C7.05975 0 6.91484 0.0599962 6.80799 0.16685L5.99986 0.975052L5.19189 0.16685C5.08503 0.0599962 4.94013 0 4.789 0C4.63795 0 4.49305 0.0599962 4.38619 0.166926L3.57837 0.975052L2.77017 0.16685C2.66339 0.0599962 2.51849 0 2.36743 0C2.21638 0 2.07148 0.0599962 1.96462 0.16685L0.753688 1.37794C0.64691 1.48472 0.586914 1.62962 0.586914 1.78067V14.2196C0.586914 14.3707 0.646986 14.5156 0.753764 14.6224L1.9647 15.8331C2.18707 16.0556 2.54765 16.0555 2.77009 15.8331L3.57845 15.0249L4.38688 15.8331C4.49373 15.9399 4.63863 15.9999 4.78969 15.9999C4.94074 15.9999 5.08564 15.9399 5.19242 15.833L6.00001 15.0251L6.80814 15.8331C7.03051 16.0555 7.39109 16.0554 7.61353 15.8331L8.42196 15.0249L9.23024 15.8331C9.34142 15.9443 9.48724 15.9998 9.63297 15.9998C9.77871 15.9998 9.92453 15.9443 10.0357 15.8331L11.2466 14.6224C11.3535 14.5156 11.4135 14.3707 11.4135 14.2196V1.78067C11.4134 1.62962 11.3534 1.48479 11.2466 1.37794ZM10.2743 13.9837L9.6329 14.6249L8.82462 13.8168C8.6021 13.5944 8.24167 13.5945 8.01923 13.8168L7.21087 14.6249L6.40267 13.8168C6.29582 13.71 6.15099 13.65 5.99986 13.65C5.84881 13.65 5.70391 13.71 5.59713 13.817L4.78953 14.6249L3.98126 13.8168C3.75881 13.5945 3.39831 13.5945 3.17586 13.8168L2.36751 14.6249L1.72616 13.9837V2.01663L2.36751 1.37513L3.17571 2.18341C3.28257 2.29026 3.42747 2.35026 3.57852 2.35026C3.72965 2.35026 3.87448 2.29018 3.98133 2.18333L4.78915 1.3752L5.59713 2.18341C5.70391 2.29026 5.84881 2.35026 5.99994 2.35026C6.15107 2.35026 6.2959 2.29026 6.40275 2.18341L7.21087 1.37513L8.01923 2.18341C8.12608 2.29026 8.27091 2.35026 8.42204 2.35026C8.57309 2.35026 8.71799 2.29026 8.82485 2.18341L9.63305 1.37513L10.2744 2.01656V13.9837H10.2743Z" fill="black"/>
</svg>
