<svg width="14" height="14" viewBox="0 0 14 14" fill="none" xmlns="http://www.w3.org/2000/svg">
<path fill-rule="evenodd" clip-rule="evenodd" d="M13.3496 5.65025C12.9235 3.02799 10.6962 1.07717 8.04065 1.00037C7.91439 0.995419 7.79139 1.04088 7.69865 1.12673C7.60592 1.21257 7.55119 1.33177 7.54639 1.45803V1.50075L7.84539 5.97367C7.86499 6.27481 8.12385 6.50367 8.42512 6.48627L12.9103 6.18727C13.0366 6.17787 13.1541 6.11854 13.2365 6.02234C13.319 5.92614 13.3597 5.80099 13.3496 5.67467V5.65025Z" stroke="black" stroke-linecap="round" stroke-linejoin="round"/>
<path d="M4.93467 3.66079C5.21997 3.59479 5.51193 3.74077 5.63032 4.00861C5.66133 4.07161 5.68 4.13997 5.68527 4.20999C5.74627 5.0765 5.8744 6.97426 5.94767 7.99946C5.96013 8.18413 6.04573 8.35619 6.18547 8.47759C6.32513 8.59899 6.50747 8.65973 6.69213 8.64633L10.4572 8.41439C10.6253 8.40433 10.7901 8.46413 10.9125 8.57966C11.035 8.69519 11.1043 8.85626 11.104 9.02466C10.9514 11.2982 9.31793 13.1989 7.09313 13.6916C4.86834 14.1843 2.58511 13.1509 1.48692 11.1543C1.15909 10.5797 0.951473 9.94439 0.876693 9.28706C0.844726 9.08526 0.832466 8.88093 0.840079 8.67679C0.846559 6.24879 2.55175 4.15676 4.92857 3.66079" stroke="black" stroke-linecap="round" stroke-linejoin="round"/>
</svg>
