<svg width="16" height="16" viewBox="0 0 16 16" fill="none" xmlns="http://www.w3.org/2000/svg">
<g clip-path="url(#clip0_945_489)">
<path d="M12.9447 1.26707C12.9117 1.28148 9.59062 2.7137 7.4999 0.919884C5.09639 -1.14256 2.79516 0.904388 2.77269 0.925463L2.68281 1.0072L2.66895 15.9991L3.21967 16L3.22858 6.50139C3.62815 6.18442 5.32906 5.0226 7.14117 6.57794C9.49315 8.59606 13.0172 7.07675 13.1664 7.01105L13.3317 6.93837V1.09654L12.9447 1.26707ZM12.78 6.57212C12.0829 6.8347 9.32416 7.72456 7.4999 6.15978C6.69604 5.46989 5.90381 5.24001 5.20424 5.24001C4.3663 5.24001 3.66061 5.57054 3.22936 5.83676L3.233 1.25762C3.64085 0.934605 5.33596 -0.211478 7.14109 1.33773C9.06685 2.98984 11.7793 2.27082 12.7801 1.92007V6.57212H12.78Z" fill="black"/>
</g>
<defs>
<clipPath id="clip0_945_489">
<rect width="16" height="16" fill="white"/>
</clipPath>
</defs>
</svg>
