<svg width="16" height="16" viewBox="0 0 16 16" fill="none" xmlns="http://www.w3.org/2000/svg">
<path d="M5.89046 8.95145C5.80018 8.80036 5.60449 8.75102 5.45337 8.8413C4.45231 9.43936 3.72259 10.4299 3.45127 11.5589C3.41015 11.73 3.51559 11.9021 3.68671 11.9432C3.71177 11.9493 3.73681 11.9521 3.76146 11.9521C3.90543 11.9521 4.03602 11.854 4.07112 11.7078C4.30259 10.7445 4.92559 9.89917 5.78034 9.38848C5.9314 9.29826 5.98071 9.10258 5.89046 8.95145Z" fill="black"/>
<path d="M7.68217 8.22803C7.34155 8.22803 7.00236 8.26759 6.67389 8.34553C6.50264 8.38615 6.39676 8.55796 6.43739 8.72925C6.47217 8.87578 6.60292 8.97443 6.74723 8.97443C6.77161 8.97443 6.79639 8.97162 6.82111 8.96575C7.10139 8.89921 7.39108 8.86546 7.68217 8.86546C7.85817 8.86546 8.00089 8.72278 8.00089 8.54675C8.00092 8.37071 7.85817 8.22803 7.68217 8.22803Z" fill="black"/>
<path d="M13.6838 8.88104C13.1341 8.385 12.4767 8.00644 11.7512 7.7851C12.5848 7.27954 13.143 6.36335 13.143 5.31922C13.143 3.73025 11.8503 2.4375 10.2613 2.4375C10.1103 2.4375 9.96203 2.44922 9.81722 2.47172C9.26222 1.944 8.51203 1.61963 7.6875 1.61963C6.86297 1.61963 6.11278 1.94397 5.55775 2.47175C5.41297 2.44925 5.26466 2.43754 5.11363 2.43754C3.52466 2.43754 2.23194 3.73029 2.23194 5.31925C2.23194 6.36338 2.79016 7.27954 3.62378 7.7851C1.52856 8.42441 0 10.3755 0 12.6771C0 12.8532 0.142719 12.9958 0.318719 12.9958H2.49728H10.835C11.3143 13.8228 12.2092 14.3803 13.2318 14.3803C14.7582 14.3803 16 13.1385 16 11.6121C16 10.2396 14.9959 9.09744 13.6838 8.88104ZM12.6649 8.90241C12.4054 8.95663 12.1592 9.04738 11.9318 9.16885C11.6498 8.82832 11.3278 8.52222 10.9729 8.25775C11.5873 8.35629 12.1604 8.58007 12.6649 8.90241ZM10.3109 3.07622C11.5255 3.10279 12.5056 4.09835 12.5056 5.31922C12.5056 6.55669 11.4988 7.5635 10.2613 7.5635C9.91903 7.5635 9.59456 7.48619 9.304 7.34857C10.1891 6.80379 10.7805 5.82604 10.7805 4.71269C10.7805 4.11216 10.6083 3.55119 10.3109 3.07622ZM5.77522 3.1746C5.92434 2.98954 6.09963 2.82654 6.29553 2.69119C6.69147 2.41775 7.17097 2.2571 7.68747 2.2571C8.20397 2.2571 8.68344 2.41775 9.07934 2.69119C9.27525 2.82654 9.45053 2.98954 9.59966 3.1746C9.93916 3.59585 10.143 4.13078 10.143 4.71263C10.143 5.70025 9.55659 6.553 8.71397 6.94247C8.50125 7.04079 8.27234 7.10957 8.03222 7.1435C7.9195 7.15941 7.8045 7.16819 7.68747 7.16819C7.57041 7.16819 7.45541 7.15944 7.34266 7.1435C7.10256 7.1096 6.87363 7.04082 6.66091 6.94247C5.81828 6.553 5.23191 5.70025 5.23191 4.71263C5.23191 4.13075 5.43575 3.59585 5.77522 3.1746ZM2.86937 5.31922C2.86937 4.09835 3.84944 3.10279 5.06403 3.07619C4.76669 3.55116 4.5945 4.1121 4.5945 4.71263C4.5945 5.826 5.18591 6.80372 6.07097 7.3485C5.78038 7.48613 5.45594 7.56344 5.11366 7.56344C3.87616 7.56347 2.86937 6.55669 2.86937 5.31922ZM2.188 12.3584H0.648687C0.795781 10.2763 2.37347 8.58313 4.40212 8.25775C3.13337 9.20338 2.28416 10.6816 2.188 12.3584ZM10.5659 12.3584H2.82628V12.3584C2.94534 10.5231 4.08556 8.96175 5.68291 8.23769C6.05616 8.06847 6.45431 7.94488 6.87031 7.87435C7.13609 7.82929 7.40906 7.80569 7.68747 7.80569C7.96587 7.80569 8.23884 7.82929 8.50459 7.87435C8.92059 7.94491 9.31875 8.06847 9.69203 8.23769C10.3558 8.53857 10.9406 8.98379 11.4059 9.53341C10.8286 10.0411 10.4636 10.7848 10.4636 11.6122C10.4637 11.8707 10.4994 12.1209 10.5659 12.3584ZM14.8501 12.9958C14.459 13.4526 13.8788 13.7428 13.2318 13.7428C12.5848 13.7428 12.0046 13.4526 11.6135 12.9958C11.4531 12.8085 11.3244 12.5933 11.2363 12.3584C11.1491 12.126 11.1011 11.8746 11.1011 11.6121C11.1011 10.9945 11.3654 10.4376 11.7867 10.0481C11.9428 9.90385 12.1202 9.78241 12.3138 9.68957C12.592 9.55622 12.9033 9.48138 13.2318 9.48138C13.2884 9.48138 13.3443 9.48428 13.3998 9.48863C13.8589 9.52466 14.2773 9.7065 14.609 9.98813C15.0695 10.3793 15.3626 10.962 15.3626 11.6122C15.3626 11.7408 15.3505 11.8666 15.3285 11.989C15.2604 12.3689 15.0914 12.7141 14.8501 12.9958Z" fill="black"/>
</svg>
